<?xml version="1.0" encoding="UTF-8" standalone="no"?>
<!-- Created with Inkscape (http://www.inkscape.org/) -->

<svg
   xmlns:dc="http://purl.org/dc/elements/1.1/"
   xmlns:cc="http://creativecommons.org/ns#"
   xmlns:rdf="http://www.w3.org/1999/02/22-rdf-syntax-ns#"
   xmlns:svg="http://www.w3.org/2000/svg"
   xmlns="http://www.w3.org/2000/svg"
   xmlns:xlink="http://www.w3.org/1999/xlink"
   xmlns:sodipodi="http://sodipodi.sourceforge.net/DTD/sodipodi-0.dtd"
   xmlns:inkscape="http://www.inkscape.org/namespaces/inkscape"
   width="16px"
   height="16px"
   id="svg4343"
   version="1.1"
   inkscape:version="0.48.1 "
   sodipodi:docname="IconInfo.svg"
   inkscape:export-filename="D:\Projects0\Retranslator\Retranslator\Images\IconInfo16.png"
   inkscape:export-xdpi="90"
   inkscape:export-ydpi="90">
  <defs
     id="defs4345">
    <linearGradient
       id="linearGradient4877">
      <stop
         id="stop4879"
         offset="0"
         style="stop-color:#15778f;stop-opacity:1;" />
      <stop
         id="stop4881"
         offset="1"
         style="stop-color:#4b758b;stop-opacity:1;" />
    </linearGradient>
    <linearGradient
       id="linearGradient4861">
      <stop
         style="stop-color:#68e1ff;stop-opacity:1;"
         offset="0"
         id="stop4863" />
      <stop
         style="stop-color:#41c0ff;stop-opacity:1;"
         offset="1"
         id="stop4865" />
    </linearGradient>
    <linearGradient
       inkscape:collect="always"
       xlink:href="#linearGradient4861"
       id="linearGradient4867"
       x1="9.6405935"
       y1="2.9131188"
       x2="6.8024745"
       y2="13.725"
       gradientUnits="userSpaceOnUse" />
    <filter
       inkscape:collect="always"
       id="filter4889">
      <feGaussianBlur
         inkscape:collect="always"
         stdDeviation="0.30678692"
         id="feGaussianBlur4891" />
    </filter>
  </defs>
  <sodipodi:namedview
     id="base"
     pagecolor="#ffffff"
     bordercolor="#666666"
     borderopacity="1.0"
     inkscape:pageopacity="0.0"
     inkscape:pageshadow="2"
     inkscape:zoom="22.197802"
     inkscape:cx="0.83712865"
     inkscape:cy="12.810179"
     inkscape:current-layer="layer1"
     showgrid="true"
     inkscape:grid-bbox="true"
     inkscape:document-units="px"
     inkscape:window-width="1920"
     inkscape:window-height="1018"
     inkscape:window-x="-8"
     inkscape:window-y="-8"
     inkscape:window-maximized="1" />
  <metadata
     id="metadata4348">
    <rdf:RDF>
      <cc:Work
         rdf:about="">
        <dc:format>image/svg+xml</dc:format>
        <dc:type
           rdf:resource="http://purl.org/dc/dcmitype/StillImage" />
      </cc:Work>
    </rdf:RDF>
  </metadata>
  <g
     id="layer1"
     inkscape:label="Layer 1"
     inkscape:groupmode="layer">
    <path
       transform="matrix(1.0059876,0,0,1.1223302,-0.30339986,-1.3467227)"
       d="m 15.45198,8.6344061 a 7.3430696,6.3294554 0 1 1 -14.68613899,0 7.3430696,6.3294554 0 1 1 14.68613899,0 z"
       sodipodi:ry="6.3294554"
       sodipodi:rx="7.3430696"
       sodipodi:cy="8.6344061"
       sodipodi:cx="8.1089106"
       id="path4883"
       style="fill:#000000;fill-opacity:0.78431373;stroke:none;filter:url(#filter4889)"
       sodipodi:type="arc" />
    <path
       sodipodi:type="arc"
       style="fill:url(#linearGradient4867);fill-opacity:1;stroke:#47a2c5;stroke-width:0.49617451000000001;stroke-miterlimit:4;stroke-opacity:1;stroke-dasharray:none"
       id="path4351"
       sodipodi:cx="8.1089106"
       sodipodi:cy="8.6344061"
       sodipodi:rx="7.3430696"
       sodipodi:ry="6.3294554"
       d="m 15.45198,8.6344061 a 7.3430696,6.3294554 0 1 1 -14.68613899,0 7.3430696,6.3294554 0 1 1 14.68613899,0 z"
       transform="matrix(0.93865032,0,0,1.0818506,0.13708314,-1.6302456)" />
    <g
       transform="matrix(1.1822853,0,0.13009968,0.84581953,0.73169486,0.22524753)"
       style="font-size:17.15007019px;font-style:italic;font-variant:normal;font-weight:bold;font-stretch:normal;text-align:start;line-height:125%;letter-spacing:0px;word-spacing:0px;writing-mode:lr-tb;text-anchor:start;fill:#ffffff;fill-opacity:1;stroke:none;font-family:Times New Roman;-inkscape-font-specification:'Times New Roman, Bold Italic'"
       id="text4893">
      <path
         d="M 6.6085435,6.8256408 4.8918617,12.779596 c -0.094909,0.340546 -0.1423615,0.563854 -0.142359,0.669924 -2.5e-6,0.06141 0.02512,0.118634 0.075367,0.171669 0.050242,0.05304 0.1032774,0.07955 0.1591071,0.07955 0.094903,10e-7 0.189809,-0.04187 0.284718,-0.125611 0.2512184,-0.206559 0.5526842,-0.580599 0.9043982,-1.122123 l 0.284718,0.167481 c -0.8429919,1.468252 -1.7390152,2.202377 -2.6880726,2.202377 -0.362877,0 -0.6517817,-0.101885 -0.8667149,-0.305653 -0.2149346,-0.203769 -0.3224016,-0.461969 -0.3224013,-0.774601 -3e-7,-0.206559 0.047453,-0.468945 0.142359,-0.787161 L 3.8869747,8.9526514 C 3.9986271,8.5674508 4.0544541,8.2771504 4.0544559,8.0817494 4.0544541,7.9589365 4.0014184,7.8500739 3.8953488,7.7551612 3.7892759,7.6602621 3.6441257,7.6128092 3.4598978,7.6128022 c -0.083742,7e-6 -0.1842303,0.0028 -0.3014661,0.00837 L 3.2672945,7.2862139 6.1061,6.8256408 z"
         id="path4898"
         inkscape:connector-curvature="0"
         sodipodi:nodetypes="ccccscccsssccccccccc" />
    </g>
    <path
       sodipodi:type="arc"
       style="fill:#ffffff;fill-opacity:1;stroke:none"
       id="path4900"
       sodipodi:cx="8.3116341"
       sodipodi:cy="3.4987624"
       sodipodi:rx="1.5992575"
       sodipodi:ry="1.5992575"
       d="m 9.9108915,3.4987624 a 1.5992575,1.5992575 0 1 1 -3.1985149,0 1.5992575,1.5992575 0 1 1 3.1985149,0 z"
       transform="translate(-0.13514852,0.40544556)" />
  </g>
</svg>
